<svg xmlns="http://www.w3.org/2000/svg" width="22.726" height="23.826" viewBox="0 0 22.726 23.826">
  <path id="Path_68" data-name="Path 68" d="M27.956,20.49c.234.106.251.149.267.4,0,1.977.006,3.954,0,5.931a4.654,4.654,0,0,1-4.4,4.6q-5.658.018-11.317,0a4.639,4.639,0,0,1-4.4-4.6q-.018-5.927,0-11.855a4.628,4.628,0,0,1,4.423-4.6h8.888c.3.021.352.128.394.336a.437.437,0,0,1-.394.507c-2.97,0-5.941-.01-8.911,0a3.8,3.8,0,0,0-3.6,3.767q-.018,5.922,0,11.844a3.791,3.791,0,0,0,3.6,3.767q5.653.019,11.307,0a3.824,3.824,0,0,0,3.6-3.792v-5.9a.42.42,0,0,1,.537-.4ZM28.983,7.606a2.048,2.048,0,0,1,1.525,3.129l-7.1,10.551a.413.413,0,0,1-.131.124l-3.234,1.92a.422.422,0,0,1-.591-.458l.792-3.722A.431.431,0,0,1,20.307,19l7.1-10.551a1.9,1.9,0,0,1,1.575-.84Zm-.038.842a1.1,1.1,0,0,0-.881.486L21.01,19.414l-.578,2.715L22.8,20.723c2.352-3.495,4.725-6.975,7.056-10.485A1.187,1.187,0,0,0,29,8.449Z" transform="translate(-8.106 -7.606)" fill-rule="evenodd"/>
</svg>
