<svg xmlns="http://www.w3.org/2000/svg" width="23.39" height="23.92" viewBox="0 0 23.39 23.92">
  <path id="icons8-info" d="M13.695,2A11.837,11.837,0,0,0,2,13.96,11.837,11.837,0,0,0,13.695,25.92,11.837,11.837,0,0,0,25.39,13.96,11.837,11.837,0,0,0,13.695,2Zm0,1.04A10.793,10.793,0,0,1,24.373,13.96,10.793,10.793,0,0,1,13.695,24.88,10.793,10.793,0,0,1,3.017,13.96,10.793,10.793,0,0,1,13.695,3.04Zm0,3.64A1.56,1.56,0,1,0,15.22,8.24a1.543,1.543,0,0,0-1.525-1.56Zm-2.034,5.2v1.04h1.017v6.76H11.661v1.04h4.068V19.68H14.712v-7.8H11.661Z" transform="translate(-2 -2)"/>
</svg>
