<svg xmlns="http://www.w3.org/2000/svg" width="21.23" height="20.575" viewBox="0 0 21.23 20.575">
  <g id="pie-chart" transform="translate(-2)">
    <path id="Path_71" data-name="Path 71" d="M20.576,20.575H4.654A2.443,2.443,0,0,1,2,18.432V2.143A2.443,2.443,0,0,1,4.654,0H20.576A2.443,2.443,0,0,1,23.23,2.143V18.432A2.443,2.443,0,0,1,20.576,20.575ZM4.654.857A1.466,1.466,0,0,0,3.062,2.143V18.432a1.466,1.466,0,0,0,1.592,1.286H20.576a1.466,1.466,0,0,0,1.592-1.286V2.143A1.466,1.466,0,0,0,20.576.857Z" transform="translate(0)"/>
    <path id="Path_72" data-name="Path 72" d="M18.5,12h-2a.5.5,0,0,1,0-1h2a.5.5,0,0,1,0,1Z" transform="translate(1.283 -1.638)"/>
    <path id="Path_73" data-name="Path 73" d="M18.5,9h-2a.5.5,0,0,1,0-1h2a.5.5,0,0,1,0,1Z" transform="translate(1.283 -1.191)"/>
    <path id="Path_74" data-name="Path 74" d="M18.5,15h-2a.5.5,0,0,1,0-1h2a.5.5,0,0,1,0,1Z" transform="translate(1.283 -2.085)"/>
    <path id="Path_75" data-name="Path 75" d="M18.5,18h-2a.5.5,0,0,1,0-1h2a.5.5,0,0,1,0,1Z" transform="translate(1.283 -2.531)"/>
    <path id="Path_76" data-name="Path 76" d="M19.686,21H5.544a.5.5,0,1,1,0-1H19.686a.5.5,0,1,1,0,1Z" transform="translate(0 -3.425)"/>
    <path id="Path_77" data-name="Path 77" d="M10,18a5,5,0,1,1,5-5A5.006,5.006,0,0,1,10,18Zm0-9a4,4,0,1,0,4,4A4,4,0,0,0,10,9Z" transform="translate(-0.089 -1.957)"/>
    <path id="Path_78" data-name="Path 78" d="M6.818,16.682a.5.5,0,0,1-.354-.853L9.5,12.793V8.5a.5.5,0,0,1,1,0V13a.5.5,0,0,1-.146.354L7.172,16.536A.5.5,0,0,1,6.818,16.682Z" transform="translate(0.336 -1.789)"/>
  </g>
</svg>
