<svg xmlns="http://www.w3.org/2000/svg" width="29.937" height="17.96" viewBox="0 0 29.937 17.96">
  <g id="Layer_2" data-name="Layer 2" transform="translate(-2.5 -8.5)">
    <path id="Path_62" data-name="Path 62" d="M31.883,8.5H5.117a.578.578,0,0,0-.554.6v2.754H3.054a.578.578,0,0,0-.554.6v13.41a.589.589,0,0,0,.554.6H27.769a.578.578,0,0,0,.554-.6V23.107h3.559a.578.578,0,0,0,.554-.6V9.1A.578.578,0,0,0,31.883,8.5ZM27.215,25.263H3.609V13.05H27.215Zm4.114-3.353h-3V12.451a.749.749,0,0,0,0-.227.59.59,0,0,0-.3-.323.442.442,0,0,0-.211,0H5.671V9.7H31.328Z" transform="translate(0)"/>
    <path id="Path_63" data-name="Path 63" d="M6.71,13.17H4.86a.5.5,0,0,0,0,1H6.71a.5.5,0,1,0,0-1Z" transform="translate(0 0.987)"/>
    <path id="Path_64" data-name="Path 64" d="M23.43,20.63H21.57a.5.5,0,0,0,0,1h1.86a.5.5,0,0,0,0-1Z" transform="translate(2.259 2.96)"/>
    <path id="Path_65" data-name="Path 65" d="M14.14,14.1a3.29,3.29,0,1,0,2.33.967,3.3,3.3,0,0,0-2.33-.967Zm0,5.6a2.29,2.29,0,1,1,1.623-.674,2.3,2.3,0,0,1-1.623.674Z" transform="translate(1.199 1.973)"/>
    <path id="Path_66" data-name="Path 66" d="M23.43,13.17H21.57a.5.5,0,0,0,0,1h1.86a.5.5,0,0,0,0-1Z" transform="translate(2.259 0.987)"/>
    <path id="Path_67" data-name="Path 67" d="M6.71,20.63H4.86a.5.5,0,0,0,0,1H6.71a.5.5,0,0,0,0-1Z" transform="translate(0 2.96)"/>
  </g>
</svg>
