<svg xmlns="http://www.w3.org/2000/svg" width="20.532" height="25.083" viewBox="0 0 20.532 25.083">
  <g id="iconfinder_Trash_4472999" transform="translate(2.095 2.831)">
    <rect id="Trash" width="16" height="16" transform="translate(0.359 0.21)" fill="none"/>
    <path id="Path_70" data-name="Path 70" d="M39.035,18.216c.279.117.31.177.328.477,0,5.546.017,11.091,0,16.637a3.93,3.93,0,0,1-3.706,3.914q-4.362.015-8.724,0a3.944,3.944,0,0,1-3.706-3.914V18.693s.22-.764.729-.423a.541.541,0,0,1,.22.423c0,5.55-.05,11.1,0,16.65a2.931,2.931,0,0,0,2.744,2.9q4.373.044,8.747,0A2.935,2.935,0,0,0,38.414,35.3V18.693a.5.5,0,0,1,.621-.477Zm-7.686,1.106a.52.52,0,0,1,.421.5v16.04c-.025.464-.218.474-.421.5a.51.51,0,0,1-.528-.5V19.821A.5.5,0,0,1,31.348,19.323Zm3.8,0a.52.52,0,0,1,.421.5v16.04a.487.487,0,0,1-.81.355.446.446,0,0,1-.139-.355V19.821A.5.5,0,0,1,35.145,19.323Zm-7.593,0a.52.52,0,0,1,.421.5v16.04a.49.49,0,0,1-.81.355.446.446,0,0,1-.139-.355V19.821A.5.5,0,0,1,27.552,19.323Zm13.59-1.883H21.567l-.06,0c-.4-.081-.4-.253-.414-.466a.517.517,0,0,1,.474-.533h5.457v-1.4a.884.884,0,0,1,.809-.855c2.3-.031,4.6,0,6.905,0a.882.882,0,0,1,.827.874v1.381h5.576s.769.307.366.821A.5.5,0,0,1,41.142,17.44Zm-13.169-1h6.644V15.184H27.973Z" transform="translate(-23.187 -17)" fill="#ff0909" fill-rule="evenodd"/>
  </g>
</svg>
